<svg xmlns="http://www.w3.org/2000/svg" xmlns:xlink="http://www.w3.org/1999/xlink" width="1000" zoomAndPan="magnify" viewBox="0 0 750 749.999995" height="1000" preserveAspectRatio="xMidYMid meet" version="1.0"><defs><clipPath id="97ec79bef9"><path d="M 68 108.132812 L 684.84375 108.132812 L 684.84375 642 L 68 642 Z M 68 108.132812 " clip-rule="nonzero"/></clipPath></defs><rect x="-75" width="900" fill="#ffffff" y="-74.999999" height="899.999994" fill-opacity="1"/><rect x="-75" width="900" fill="#ffffff" y="-74.999999" height="899.999994" fill-opacity="1"/><g clip-path="url(#97ec79bef9)"><path fill="#188fa7" d="M 645.46875 539.011719 C 630.496094 546.839844 615.351562 553.871094 599.867188 559.65625 C 582.34375 566.121094 564.535156 570.828125 545.992188 572.984375 C 504.535156 579.847656 454.511719 573.097656 413.960938 552.058594 C 380.671875 534.757812 353.84375 507.539062 344.886719 469.140625 C 355.035156 467.101562 364.90625 464.320312 374.433594 460.578125 C 392.863281 453.261719 409.765625 442.203125 424 425.300781 C 433.980469 413.449219 444.8125 394.28125 446.96875 376.8125 C 448.898438 361.273438 444.585938 346.980469 430.75 337.453125 C 403.128906 318.566406 376.53125 327.980469 355.605469 350.894531 C 332.066406 376.699219 316.8125 420.480469 317.605469 448.78125 C 307.566406 449.859375 297.527344 450.484375 287.605469 451.050781 C 246.542969 453.320312 205.539062 440.105469 171.453125 414.46875 C 139.921875 390.652344 114.34375 356.28125 100.109375 313.578125 C 88.140625 279.378906 88.765625 243.023438 94.378906 210.1875 C 98.292969 187.332031 104.871094 166.40625 111.847656 148.597656 C 118.199219 132.375 124.210938 118.878906 131.132812 109.691406 C 131.472656 109.351562 131.472656 108.785156 131.132812 108.445312 C 130.789062 108.101562 130.222656 108.101562 129.882812 108.445312 C 120.414062 115.816406 109.523438 127.101562 99.9375 142.585938 C 89.164062 159.941406 80.316406 182.058594 74.53125 206.105469 C 65.855469 242.0625 65.457031 282.667969 77.59375 321.121094 C 93.359375 368.757812 121.945312 407.152344 157.164062 433.695312 C 195.785156 462.847656 242.402344 477.820312 289.078125 475.324219 C 299.628906 474.757812 310.347656 474.078125 321.007812 472.886719 C 331.21875 519.445312 362.976562 552.792969 403.242188 573.269531 C 448.332031 596.179688 504.023438 602.703125 549.847656 594.480469 C 565.613281 590.90625 580.757812 585.6875 595.445312 578.996094 C 606.222656 574.0625 616.714844 568.335938 626.976562 562.152344 C 629.132812 559.488281 631.230469 556.765625 633.386719 554.097656 C 637.300781 548.996094 641.441406 544.003906 645.46875 539.011719 Z M 373.695312 367.339844 C 385.832031 354.070312 400.917969 346.640625 416.910156 357.644531 C 424.285156 362.691406 423.714844 371.367188 421.390625 379.761719 C 418.386719 390.878906 411.523438 402.050781 405.285156 409.535156 C 393.886719 423.148438 380.21875 431.996094 365.414062 437.894531 C 357.816406 440.898438 349.933594 443.222656 341.878906 444.925781 C 342.277344 421.730469 355.035156 387.757812 373.695312 367.339844 Z M 683.917969 528.804688 C 683.238281 531.867188 681.253906 535.214844 679.890625 537.085938 C 668.4375 552.113281 656.808594 567.257812 643.9375 581.378906 C 638.152344 587.671875 632.082031 593.628906 625.957031 599.527344 C 611.4375 613.421875 596.636719 626.296875 582.175781 639.90625 C 580.757812 641.609375 578.203125 641.835938 576.503906 640.359375 C 574.800781 638.941406 574.574219 636.390625 576.050781 634.6875 C 589.148438 615.066406 601.910156 595.386719 616.089844 576.105469 C 619.605469 571.339844 623.234375 566.691406 626.921875 562.039062 C 636.789062 556.085938 646.488281 549.617188 656.015625 542.757812 C 657.945312 541.566406 658.511719 539.011719 657.320312 537.085938 C 656.128906 535.15625 653.578125 534.589844 651.648438 535.78125 C 649.605469 536.859375 647.566406 537.9375 645.523438 539.011719 C 646.429688 537.878906 647.394531 536.6875 648.300781 535.554688 C 624.484375 536.460938 589.605469 539.582031 581.152344 540.148438 L 560.625 540.882812 C 558.75 540.601562 554.667969 541.792969 552.683594 541.054688 C 549.90625 540.035156 551.152344 540.714844 550.246094 539.410156 C 548.996094 537.652344 548.542969 539.863281 548.316406 538.785156 C 547.863281 536.746094 545.992188 539.011719 546.445312 537.59375 C 546.726562 536.800781 545.367188 537.425781 545.820312 536.746094 C 546.957031 535.101562 542.703125 534.363281 545.59375 533.851562 C 546.160156 533.738281 545.253906 533 546.046875 533.113281 C 548.257812 533.398438 544.0625 530.394531 548.941406 533.570312 C 549.28125 533.226562 549.847656 533.285156 550.1875 533.625 C 550.527344 533.964844 550.472656 534.53125 550.132812 534.875 C 551.265625 536.914062 550.980469 536.0625 550.980469 536.0625 C 550.980469 536.0625 552.34375 537.253906 551.71875 536.519531 C 551.039062 535.667969 552.910156 536.460938 552.398438 536.007812 C 551.71875 535.382812 553.308594 535.382812 552.683594 535.042969 C 551.664062 534.53125 553.535156 533.851562 552.570312 533.738281 C 551.890625 533.625 552.910156 532.886719 552.230469 532.945312 C 550.414062 533.113281 552.003906 529.542969 550.359375 531.242188 C 549.675781 531.925781 549.222656 528.691406 548.65625 530.5625 C 548.488281 531.074219 547.523438 529.710938 548.257812 529.882812 C 549.222656 530.050781 547.464844 529.371094 548.144531 528.179688 C 549.109375 526.535156 551.492188 525.003906 553.648438 523.644531 C 555.292969 522.621094 556.992188 522.394531 558.183594 522.113281 L 579 518.371094 C 589.71875 517.179688 641.328125 510.203125 662.539062 509.976562 C 668.945312 509.917969 673.539062 510.882812 675.636719 511.675781 C 680.230469 513.546875 682.21875 516.78125 683.292969 519.332031 C 684.484375 522.113281 684.710938 525.402344 683.917969 528.804688 Z M 683.917969 528.804688 " fill-opacity="1" fill-rule="nonzero"/></g></svg>