<svg xmlns="http://www.w3.org/2000/svg" xmlns:xlink="http://www.w3.org/1999/xlink" width="4800" zoomAndPan="magnify" viewBox="0 0 3600 2160.000014" height="2880" preserveAspectRatio="xMidYMid meet" version="1.0"><defs><g/></defs><g fill="#188fa7" fill-opacity="1"><g transform="translate(2799.16381, 294.647202)"><g><path d="M -1619.875 0 L -1346.0625 0 L -1035.421875 906.578125 L -724.796875 0 L -453.28125 0 L -2.296875 1224.109375 L -273.8125 1224.109375 L -591.34375 262.3125 L -899.671875 1224.109375 L -1173.484375 1224.109375 L -1484.109375 262.3125 L -1797.046875 1224.109375 L -2066.25 1224.109375 Z M -1619.875 0 "/></g></g></g><g fill="#041e42" fill-opacity="1"><g transform="translate(1586.460009, 1513.341385)"><g><path d="M 749.984375 13.25 L 476.21875 8.421875 L 23.921875 -1223.859375 L 300 -1218.984375 L 623.4375 -249.015625 L 976.359375 -1207.03125 L 1240.921875 -1202.359375 Z M 749.984375 13.25 "/></g></g></g><g fill="#000000" fill-opacity="1"><g transform="translate(424.383035, 1791.986243)"><g><path d="M 9.171875 0 L 9.171875 -21.828125 L 18.0625 -22.640625 C 23.269531 -23.179688 25.875 -25.695312 25.875 -30.1875 L 25.875 -155.546875 L 10.515625 -156.359375 L 10.515625 -179.265625 L 84.375 -179.265625 C 110.789062 -179.265625 131.410156 -172.253906 146.234375 -158.234375 C 161.066406 -144.222656 168.484375 -123.46875 168.484375 -95.96875 C 168.484375 -78.894531 166.234375 -64.019531 161.734375 -51.34375 C 157.242188 -38.675781 151.140625 -28.75 143.421875 -21.5625 C 127.960938 -7.1875 108.726562 0 85.71875 0 Z M 58.765625 -153.125 L 58.765625 -25.875 L 86.265625 -25.875 C 101.722656 -25.875 113.765625 -31.445312 122.390625 -42.59375 C 131.015625 -53.738281 135.328125 -69.914062 135.328125 -91.125 C 135.328125 -132.457031 117.804688 -153.125 82.765625 -153.125 Z M 58.765625 -153.125 "/></g></g></g><g fill="#000000" fill-opacity="1"><g transform="translate(603.626714, 1791.986243)"><g><path d="M 57.6875 -135.59375 L 57.6875 -22.375 L 73.0625 -21.5625 L 73.0625 0 L 8.890625 0 L 8.890625 -20.484375 L 17.796875 -21.296875 C 23.003906 -21.835938 25.609375 -24.710938 25.609375 -29.921875 L 25.609375 -104.859375 C 25.609375 -107.921875 25.113281 -109.988281 24.125 -111.0625 C 23.132812 -112.144531 21.382812 -112.6875 18.875 -112.6875 L 9.4375 -113.21875 L 9.4375 -135.59375 Z M 23.71875 -158.90625 C 19.945312 -162.59375 18.0625 -167.3125 18.0625 -173.0625 C 18.0625 -178.820312 19.945312 -183.628906 23.71875 -187.484375 C 27.5 -191.347656 32.441406 -193.28125 38.546875 -193.28125 C 44.660156 -193.28125 49.648438 -191.347656 53.515625 -187.484375 C 57.378906 -183.628906 59.3125 -178.820312 59.3125 -173.0625 C 59.3125 -167.3125 57.378906 -162.59375 53.515625 -158.90625 C 49.648438 -155.226562 44.660156 -153.390625 38.546875 -153.390625 C 32.441406 -153.390625 27.5 -155.226562 23.71875 -158.90625 Z M 23.71875 -158.90625 "/></g></g></g><g fill="#000000" fill-opacity="1"><g transform="translate(683.410357, 1791.986243)"><g><path d="M 128.859375 -0.265625 C 127.242188 19.679688 121.492188 34.328125 111.609375 43.671875 C 101.722656 53.015625 86.265625 57.6875 65.234375 57.6875 C 44.210938 57.6875 27.769531 54.722656 15.90625 48.796875 L 15.90625 11.328125 L 41.515625 9.171875 L 41.515625 22.109375 C 41.515625 26.960938 43.757812 30.238281 48.25 31.9375 C 52.75 33.644531 58.953125 34.5 66.859375 34.5 C 78.359375 34.5 86.441406 31.039062 91.109375 24.125 C 95.785156 17.207031 98.125 7.457031 98.125 -5.125 L 98.125 -19.953125 C 89.5 -9.890625 77.546875 -4.859375 62.265625 -4.859375 C 52.921875 -4.859375 44.695312 -6.65625 37.59375 -10.25 C 30.5 -13.84375 24.976562 -18.691406 21.03125 -24.796875 C 13.300781 -37.015625 9.4375 -51.394531 9.4375 -67.9375 C 9.4375 -91.476562 15.816406 -109.3125 28.578125 -121.4375 C 41.335938 -133.570312 58.320312 -139.640625 79.53125 -139.640625 C 97.132812 -139.640625 113.753906 -136.316406 129.390625 -129.671875 L 129.390625 -29.65625 C 129.390625 -14.375 129.210938 -4.578125 128.859375 -0.265625 Z M 98.125 -55 L 98.125 -112.953125 C 91.832031 -115.109375 84.644531 -116.1875 76.5625 -116.1875 C 65.59375 -116.1875 57.1875 -112.140625 51.34375 -104.046875 C 45.507812 -95.960938 42.59375 -85.003906 42.59375 -71.171875 C 42.59375 -42.773438 51.9375 -28.578125 70.625 -28.578125 C 78.351562 -28.578125 84.867188 -30.957031 90.171875 -35.71875 C 95.472656 -40.476562 98.125 -46.90625 98.125 -55 Z M 98.125 -55 "/></g></g></g><g fill="#000000" fill-opacity="1"><g transform="translate(830.039824, 1791.986243)"><g><path d="M 57.6875 -135.59375 L 57.6875 -22.375 L 73.0625 -21.5625 L 73.0625 0 L 8.890625 0 L 8.890625 -20.484375 L 17.796875 -21.296875 C 23.003906 -21.835938 25.609375 -24.710938 25.609375 -29.921875 L 25.609375 -104.859375 C 25.609375 -107.921875 25.113281 -109.988281 24.125 -111.0625 C 23.132812 -112.144531 21.382812 -112.6875 18.875 -112.6875 L 9.4375 -113.21875 L 9.4375 -135.59375 Z M 23.71875 -158.90625 C 19.945312 -162.59375 18.0625 -167.3125 18.0625 -173.0625 C 18.0625 -178.820312 19.945312 -183.628906 23.71875 -187.484375 C 27.5 -191.347656 32.441406 -193.28125 38.546875 -193.28125 C 44.660156 -193.28125 49.648438 -191.347656 53.515625 -187.484375 C 57.378906 -183.628906 59.3125 -178.820312 59.3125 -173.0625 C 59.3125 -167.3125 57.378906 -162.59375 53.515625 -158.90625 C 49.648438 -155.226562 44.660156 -153.390625 38.546875 -153.390625 C 32.441406 -153.390625 27.5 -155.226562 23.71875 -158.90625 Z M 23.71875 -158.90625 "/></g></g></g><g fill="#000000" fill-opacity="1"><g transform="translate(909.823467, 1791.986243)"><g><path d="M 38.8125 -164.171875 L 56.34375 -164.171875 L 56.34375 -135.59375 L 92.203125 -135.59375 L 89.5 -112.953125 L 56.34375 -112.953125 L 56.34375 -42.046875 C 56.34375 -34.140625 57.78125 -28.613281 60.65625 -25.46875 C 63.53125 -22.320312 67.976562 -20.75 74 -20.75 C 80.019531 -20.75 86.085938 -22.640625 92.203125 -26.421875 L 100.28125 -5.65625 C 91.289062 0.632812 79.878906 3.78125 66.046875 3.78125 C 57.960938 3.78125 51.132812 2.742188 45.5625 0.671875 C 39.988281 -1.390625 35.851562 -3.675781 33.15625 -6.1875 C 30.457031 -8.707031 28.390625 -12.394531 26.953125 -17.25 C 25.515625 -22.101562 24.707031 -25.921875 24.53125 -28.703125 C 24.351562 -31.492188 24.265625 -35.582031 24.265625 -40.96875 L 24.265625 -112.953125 L 5.125 -112.953125 L 7.8125 -132.625 C 16.257812 -133.34375 22.640625 -136.351562 26.953125 -141.65625 C 31.265625 -146.957031 35.21875 -154.460938 38.8125 -164.171875 Z M 38.8125 -164.171875 "/></g></g></g><g fill="#000000" fill-opacity="1"><g transform="translate(1011.439852, 1791.986243)"><g><path d="M 129.9375 -130.203125 L 129.9375 -29.921875 C 129.9375 -27.046875 130.429688 -25.066406 131.421875 -23.984375 C 132.410156 -22.910156 134.160156 -22.285156 136.671875 -22.109375 L 145.296875 -21.5625 L 145.296875 0 L 102.4375 0 L 102.4375 -15.640625 L 101.625 -15.90625 C 92.644531 -2.96875 80.335938 3.5 64.703125 3.5 C 46.367188 3.5 32.796875 -2.335938 23.984375 -14.015625 C 15.179688 -25.703125 10.78125 -41.695312 10.78125 -62 C 10.78125 -86.445312 16.710938 -105.5 28.578125 -119.15625 C 40.441406 -132.8125 58.234375 -139.640625 81.953125 -139.640625 C 97.222656 -139.640625 113.21875 -136.492188 129.9375 -130.203125 Z M 98.671875 -42.859375 L 98.671875 -112.6875 C 93.640625 -115.019531 86.71875 -116.1875 77.90625 -116.1875 C 65.863281 -116.1875 57.144531 -111.332031 51.75 -101.625 C 46.363281 -91.925781 43.671875 -79.078125 43.671875 -63.078125 C 43.671875 -33.960938 53.015625 -19.40625 71.703125 -19.40625 C 79.609375 -19.40625 86.078125 -21.785156 91.109375 -26.546875 C 96.148438 -31.316406 98.671875 -36.753906 98.671875 -42.859375 Z M 98.671875 -42.859375 "/></g></g></g><g fill="#000000" fill-opacity="1"><g transform="translate(1164.26866, 1791.986243)"><g><path d="M 57.15625 -192.203125 L 57.15625 -22.375 L 72.515625 -21.5625 L 72.515625 0 L 8.359375 0 L 8.359375 -20.484375 L 17.25 -21.296875 C 22.46875 -21.835938 25.078125 -24.710938 25.078125 -29.921875 L 25.078125 -162.828125 C 25.078125 -166.773438 22.828125 -168.929688 18.328125 -169.296875 L 8.890625 -169.828125 L 8.890625 -192.203125 Z M 57.15625 -192.203125 "/></g></g></g><g fill="#000000" fill-opacity="1"><g transform="translate(1244.591435, 1791.986243)"><g/></g></g><g fill="#000000" fill-opacity="1"><g transform="translate(1298.499344, 1791.986243)"><g><path d="M 9.171875 0 L 9.171875 -21.828125 L 18.0625 -22.640625 C 23.269531 -23.179688 25.875 -25.695312 25.875 -30.1875 L 25.875 -155.546875 L 10.515625 -156.359375 L 10.515625 -179.265625 L 84.375 -179.265625 C 110.789062 -179.265625 131.410156 -172.253906 146.234375 -158.234375 C 161.066406 -144.222656 168.484375 -123.46875 168.484375 -95.96875 C 168.484375 -78.894531 166.234375 -64.019531 161.734375 -51.34375 C 157.242188 -38.675781 151.140625 -28.75 143.421875 -21.5625 C 127.960938 -7.1875 108.726562 0 85.71875 0 Z M 58.765625 -153.125 L 58.765625 -25.875 L 86.265625 -25.875 C 101.722656 -25.875 113.765625 -31.445312 122.390625 -42.59375 C 131.015625 -53.738281 135.328125 -69.914062 135.328125 -91.125 C 135.328125 -132.457031 117.804688 -153.125 82.765625 -153.125 Z M 58.765625 -153.125 "/></g></g></g><g fill="#000000" fill-opacity="1"><g transform="translate(1477.743023, 1791.986243)"><g><path d="M 76.5625 -139.640625 C 90.039062 -139.640625 100.734375 -136.359375 108.640625 -129.796875 C 116.546875 -123.242188 120.5 -114.035156 120.5 -102.171875 C 120.5 -94.265625 118.789062 -87.300781 115.375 -81.28125 C 111.957031 -75.257812 107.734375 -70.539062 102.703125 -67.125 C 97.671875 -63.707031 91.5625 -60.921875 84.375 -58.765625 C 72.332031 -55.171875 58.765625 -53.375 43.671875 -53.375 C 44.210938 -43.851562 47.175781 -36.171875 52.5625 -30.328125 C 57.957031 -24.484375 66.222656 -21.5625 77.359375 -21.5625 C 88.503906 -21.5625 99.648438 -25.515625 110.796875 -33.421875 L 121.046875 -11.59375 C 117.453125 -8.351562 111.382812 -5.023438 102.84375 -1.609375 C 94.3125 1.796875 84.5625 3.5 73.59375 3.5 C 51.664062 3.5 35.578125 -2.5625 25.328125 -14.6875 C 15.085938 -26.820312 9.96875 -43.492188 9.96875 -64.703125 C 9.96875 -85.910156 15.804688 -103.703125 27.484375 -118.078125 C 39.171875 -132.453125 55.53125 -139.640625 76.5625 -139.640625 Z M 64.296875 -78.046875 C 70.859375 -79.210938 76.921875 -81.816406 82.484375 -85.859375 C 88.054688 -89.898438 90.84375 -94.707031 90.84375 -100.28125 C 90.84375 -111.25 85.453125 -116.734375 74.671875 -116.734375 C 64.609375 -116.734375 56.878906 -112.734375 51.484375 -104.734375 C 46.097656 -96.734375 43.132812 -87.160156 42.59375 -76.015625 C 50.5 -76.203125 57.734375 -76.878906 64.296875 -78.046875 Z M 64.296875 -78.046875 "/></g></g></g><g fill="#000000" fill-opacity="1"><g transform="translate(1608.200053, 1791.986243)"><g><path d="M 90.84375 -135.59375 L 147.734375 -135.59375 L 147.734375 -114.578125 L 139.375 -114.03125 C 135.78125 -113.675781 133.351562 -111.519531 132.09375 -107.5625 L 97.3125 0 L 56.078125 0 L 18.328125 -107.296875 C 17.429688 -109.804688 16.488281 -111.507812 15.5 -112.40625 C 14.507812 -113.3125 12.847656 -113.851562 10.515625 -114.03125 L 2.703125 -114.578125 L 2.703125 -135.59375 L 66.046875 -135.59375 L 66.046875 -114.03125 L 49.609375 -113.21875 L 77.375 -24.53125 L 77.90625 -24.53125 L 104.859375 -113.21875 L 90.84375 -114.03125 Z M 90.84375 -135.59375 "/></g></g></g><g fill="#000000" fill-opacity="1"><g transform="translate(1758.602992, 1791.986243)"><g><path d="M 76.5625 -139.640625 C 90.039062 -139.640625 100.734375 -136.359375 108.640625 -129.796875 C 116.546875 -123.242188 120.5 -114.035156 120.5 -102.171875 C 120.5 -94.265625 118.789062 -87.300781 115.375 -81.28125 C 111.957031 -75.257812 107.734375 -70.539062 102.703125 -67.125 C 97.671875 -63.707031 91.5625 -60.921875 84.375 -58.765625 C 72.332031 -55.171875 58.765625 -53.375 43.671875 -53.375 C 44.210938 -43.851562 47.175781 -36.171875 52.5625 -30.328125 C 57.957031 -24.484375 66.222656 -21.5625 77.359375 -21.5625 C 88.503906 -21.5625 99.648438 -25.515625 110.796875 -33.421875 L 121.046875 -11.59375 C 117.453125 -8.351562 111.382812 -5.023438 102.84375 -1.609375 C 94.3125 1.796875 84.5625 3.5 73.59375 3.5 C 51.664062 3.5 35.578125 -2.5625 25.328125 -14.6875 C 15.085938 -26.820312 9.96875 -43.492188 9.96875 -64.703125 C 9.96875 -85.910156 15.804688 -103.703125 27.484375 -118.078125 C 39.171875 -132.453125 55.53125 -139.640625 76.5625 -139.640625 Z M 64.296875 -78.046875 C 70.859375 -79.210938 76.921875 -81.816406 82.484375 -85.859375 C 88.054688 -89.898438 90.84375 -94.707031 90.84375 -100.28125 C 90.84375 -111.25 85.453125 -116.734375 74.671875 -116.734375 C 64.609375 -116.734375 56.878906 -112.734375 51.484375 -104.734375 C 46.097656 -96.734375 43.132812 -87.160156 42.59375 -76.015625 C 50.5 -76.203125 57.734375 -76.878906 64.296875 -78.046875 Z M 64.296875 -78.046875 "/></g></g></g><g fill="#000000" fill-opacity="1"><g transform="translate(1889.060022, 1791.986243)"><g><path d="M 57.15625 -192.203125 L 57.15625 -22.375 L 72.515625 -21.5625 L 72.515625 0 L 8.359375 0 L 8.359375 -20.484375 L 17.25 -21.296875 C 22.46875 -21.835938 25.078125 -24.710938 25.078125 -29.921875 L 25.078125 -162.828125 C 25.078125 -166.773438 22.828125 -168.929688 18.328125 -169.296875 L 8.890625 -169.828125 L 8.890625 -192.203125 Z M 57.15625 -192.203125 "/></g></g></g><g fill="#000000" fill-opacity="1"><g transform="translate(1969.382708, 1791.986243)"><g><path d="M 70.90625 -19.671875 C 90.488281 -19.671875 100.28125 -35.488281 100.28125 -67.125 C 100.28125 -83.125 98.078125 -95.253906 93.671875 -103.515625 C 89.273438 -111.785156 81.910156 -115.921875 71.578125 -115.921875 C 61.242188 -115.921875 53.648438 -111.96875 48.796875 -104.0625 C 43.941406 -96.15625 41.515625 -85.367188 41.515625 -71.703125 C 41.515625 -46.367188 46.1875 -30.46875 55.53125 -24 C 59.664062 -21.113281 64.789062 -19.671875 70.90625 -19.671875 Z M 8.890625 -67.9375 C 8.890625 -81.226562 10.863281 -92.769531 14.8125 -102.5625 C 18.769531 -112.363281 24.078125 -119.867188 30.734375 -125.078125 C 43.492188 -134.785156 57.601562 -139.640625 73.0625 -139.640625 C 83.84375 -139.640625 92.960938 -137.882812 100.421875 -134.375 C 107.878906 -130.875 113.71875 -126.832031 117.9375 -122.25 C 122.164062 -117.664062 125.757812 -111.015625 128.71875 -102.296875 C 131.6875 -93.585938 133.171875 -83.300781 133.171875 -71.4375 C 133.171875 -46.632812 127.148438 -27.851562 115.109375 -15.09375 C 103.066406 -2.332031 87.65625 4.046875 68.875 4.046875 C 50.09375 4.046875 35.398438 -2.015625 24.796875 -14.140625 C 14.191406 -26.273438 8.890625 -44.207031 8.890625 -67.9375 Z M 8.890625 -67.9375 "/></g></g></g><g fill="#000000" fill-opacity="1"><g transform="translate(2111.699567, 1791.986243)"><g><path d="M 24 25.609375 L 24 -104.859375 C 24 -107.921875 23.503906 -110.035156 22.515625 -111.203125 C 21.523438 -112.367188 19.769531 -112.953125 17.25 -112.953125 L 5.9375 -113.765625 L 5.9375 -135.59375 L 51.484375 -135.59375 L 51.484375 -118.078125 C 54.359375 -123.460938 59.570312 -128.398438 67.125 -132.890625 C 74.675781 -137.390625 83.660156 -139.640625 94.078125 -139.640625 C 126.609375 -139.640625 142.875 -116.816406 142.875 -71.171875 C 142.875 -46.910156 137.570312 -28.304688 126.96875 -15.359375 C 116.363281 -2.421875 101.988281 4.046875 83.84375 4.046875 C 73.0625 4.046875 63.445312 1.4375 55 -3.78125 L 55 33.421875 L 76.828125 34.5 L 76.828125 55.796875 L 7.28125 55.796875 L 7.28125 35.3125 L 16.171875 34.5 C 18.867188 34.144531 20.847656 33.382812 22.109375 32.21875 C 23.367188 31.050781 24 28.847656 24 25.609375 Z M 109.453125 -68.46875 C 109.453125 -98.488281 100.375 -113.5 82.21875 -113.5 C 74.675781 -113.5 68.253906 -111.207031 62.953125 -106.625 C 57.648438 -102.039062 55 -96.601562 55 -90.3125 L 55 -28.3125 C 61.820312 -23.8125 70.128906 -21.5625 79.921875 -21.5625 C 89.722656 -21.5625 97.09375 -26.054688 102.03125 -35.046875 C 106.976562 -44.035156 109.453125 -55.175781 109.453125 -68.46875 Z M 109.453125 -68.46875 "/></g></g></g><g fill="#000000" fill-opacity="1"><g transform="translate(2264.79799, 1791.986243)"><g><path d="M 24 25.609375 L 24 -104.859375 C 24 -107.921875 23.503906 -110.035156 22.515625 -111.203125 C 21.523438 -112.367188 19.769531 -112.953125 17.25 -112.953125 L 5.9375 -113.765625 L 5.9375 -135.59375 L 51.484375 -135.59375 L 51.484375 -118.078125 C 54.359375 -123.460938 59.570312 -128.398438 67.125 -132.890625 C 74.675781 -137.390625 83.660156 -139.640625 94.078125 -139.640625 C 126.609375 -139.640625 142.875 -116.816406 142.875 -71.171875 C 142.875 -46.910156 137.570312 -28.304688 126.96875 -15.359375 C 116.363281 -2.421875 101.988281 4.046875 83.84375 4.046875 C 73.0625 4.046875 63.445312 1.4375 55 -3.78125 L 55 33.421875 L 76.828125 34.5 L 76.828125 55.796875 L 7.28125 55.796875 L 7.28125 35.3125 L 16.171875 34.5 C 18.867188 34.144531 20.847656 33.382812 22.109375 32.21875 C 23.367188 31.050781 24 28.847656 24 25.609375 Z M 109.453125 -68.46875 C 109.453125 -98.488281 100.375 -113.5 82.21875 -113.5 C 74.675781 -113.5 68.253906 -111.207031 62.953125 -106.625 C 57.648438 -102.039062 55 -96.601562 55 -90.3125 L 55 -28.3125 C 61.820312 -23.8125 70.128906 -21.5625 79.921875 -21.5625 C 89.722656 -21.5625 97.09375 -26.054688 102.03125 -35.046875 C 106.976562 -44.035156 109.453125 -55.175781 109.453125 -68.46875 Z M 109.453125 -68.46875 "/></g></g></g><g fill="#000000" fill-opacity="1"><g transform="translate(2417.896412, 1791.986243)"><g><path d="M 76.5625 -139.640625 C 90.039062 -139.640625 100.734375 -136.359375 108.640625 -129.796875 C 116.546875 -123.242188 120.5 -114.035156 120.5 -102.171875 C 120.5 -94.265625 118.789062 -87.300781 115.375 -81.28125 C 111.957031 -75.257812 107.734375 -70.539062 102.703125 -67.125 C 97.671875 -63.707031 91.5625 -60.921875 84.375 -58.765625 C 72.332031 -55.171875 58.765625 -53.375 43.671875 -53.375 C 44.210938 -43.851562 47.175781 -36.171875 52.5625 -30.328125 C 57.957031 -24.484375 66.222656 -21.5625 77.359375 -21.5625 C 88.503906 -21.5625 99.648438 -25.515625 110.796875 -33.421875 L 121.046875 -11.59375 C 117.453125 -8.351562 111.382812 -5.023438 102.84375 -1.609375 C 94.3125 1.796875 84.5625 3.5 73.59375 3.5 C 51.664062 3.5 35.578125 -2.5625 25.328125 -14.6875 C 15.085938 -26.820312 9.96875 -43.492188 9.96875 -64.703125 C 9.96875 -85.910156 15.804688 -103.703125 27.484375 -118.078125 C 39.171875 -132.453125 55.53125 -139.640625 76.5625 -139.640625 Z M 64.296875 -78.046875 C 70.859375 -79.210938 76.921875 -81.816406 82.484375 -85.859375 C 88.054688 -89.898438 90.84375 -94.707031 90.84375 -100.28125 C 90.84375 -111.25 85.453125 -116.734375 74.671875 -116.734375 C 64.609375 -116.734375 56.878906 -112.734375 51.484375 -104.734375 C 46.097656 -96.734375 43.132812 -87.160156 42.59375 -76.015625 C 50.5 -76.203125 57.734375 -76.878906 64.296875 -78.046875 Z M 64.296875 -78.046875 "/></g></g></g><g fill="#000000" fill-opacity="1"><g transform="translate(2548.353442, 1791.986243)"><g><path d="M 7.28125 -113.765625 L 7.28125 -135.59375 L 52.84375 -135.59375 L 52.84375 -118.078125 C 62.90625 -132.453125 76.695312 -139.640625 94.21875 -139.640625 C 111.738281 -139.640625 123.554688 -132.453125 129.671875 -118.078125 C 139.734375 -132.453125 153.390625 -139.640625 170.640625 -139.640625 C 183.578125 -139.640625 193.550781 -135.726562 200.5625 -127.90625 C 207.570312 -120.09375 211.078125 -108.367188 211.078125 -92.734375 L 211.078125 -22.375 L 226.453125 -21.5625 L 226.453125 0 L 162.28125 0 L 162.28125 -20.484375 L 171.1875 -21.296875 C 173.875 -21.648438 175.800781 -22.410156 176.96875 -23.578125 C 178.144531 -24.753906 178.820312 -26.867188 179 -29.921875 L 179 -85.71875 C 179 -95.601562 177.875 -102.925781 175.625 -107.6875 C 173.382812 -112.457031 168.128906 -114.84375 159.859375 -114.84375 C 151.585938 -114.84375 145.25 -112.328125 140.84375 -107.296875 C 136.445312 -102.265625 134.25 -95.523438 134.25 -87.078125 L 134.25 -22.375 L 149.078125 -21.5625 L 149.078125 0 L 85.453125 0 L 85.453125 -20.484375 L 94.359375 -21.296875 C 97.046875 -21.648438 99.019531 -22.410156 100.28125 -23.578125 C 101.539062 -24.753906 102.171875 -26.957031 102.171875 -30.1875 L 102.171875 -85.71875 C 102.171875 -95.601562 101.046875 -102.925781 98.796875 -107.6875 C 96.554688 -112.457031 91.253906 -114.84375 82.890625 -114.84375 C 74.535156 -114.84375 68.203125 -112.234375 63.890625 -107.015625 C 59.578125 -101.804688 57.421875 -95.335938 57.421875 -87.609375 L 57.421875 -22.375 L 71.984375 -21.5625 L 71.984375 0 L 8.359375 0 L 8.359375 -20.484375 L 17.25 -21.296875 C 19.945312 -21.648438 21.925781 -22.410156 23.1875 -23.578125 C 24.445312 -24.753906 25.078125 -26.957031 25.078125 -30.1875 L 25.34375 -30.1875 L 25.34375 -104.59375 C 25.34375 -107.644531 24.847656 -109.753906 23.859375 -110.921875 C 22.867188 -112.097656 21.113281 -112.773438 18.59375 -112.953125 Z M 7.28125 -113.765625 "/></g></g></g><g fill="#000000" fill-opacity="1"><g transform="translate(2781.774549, 1791.986243)"><g><path d="M 76.5625 -139.640625 C 90.039062 -139.640625 100.734375 -136.359375 108.640625 -129.796875 C 116.546875 -123.242188 120.5 -114.035156 120.5 -102.171875 C 120.5 -94.265625 118.789062 -87.300781 115.375 -81.28125 C 111.957031 -75.257812 107.734375 -70.539062 102.703125 -67.125 C 97.671875 -63.707031 91.5625 -60.921875 84.375 -58.765625 C 72.332031 -55.171875 58.765625 -53.375 43.671875 -53.375 C 44.210938 -43.851562 47.175781 -36.171875 52.5625 -30.328125 C 57.957031 -24.484375 66.222656 -21.5625 77.359375 -21.5625 C 88.503906 -21.5625 99.648438 -25.515625 110.796875 -33.421875 L 121.046875 -11.59375 C 117.453125 -8.351562 111.382812 -5.023438 102.84375 -1.609375 C 94.3125 1.796875 84.5625 3.5 73.59375 3.5 C 51.664062 3.5 35.578125 -2.5625 25.328125 -14.6875 C 15.085938 -26.820312 9.96875 -43.492188 9.96875 -64.703125 C 9.96875 -85.910156 15.804688 -103.703125 27.484375 -118.078125 C 39.171875 -132.453125 55.53125 -139.640625 76.5625 -139.640625 Z M 64.296875 -78.046875 C 70.859375 -79.210938 76.921875 -81.816406 82.484375 -85.859375 C 88.054688 -89.898438 90.84375 -94.707031 90.84375 -100.28125 C 90.84375 -111.25 85.453125 -116.734375 74.671875 -116.734375 C 64.609375 -116.734375 56.878906 -112.734375 51.484375 -104.734375 C 46.097656 -96.734375 43.132812 -87.160156 42.59375 -76.015625 C 50.5 -76.203125 57.734375 -76.878906 64.296875 -78.046875 Z M 64.296875 -78.046875 "/></g></g></g><g fill="#000000" fill-opacity="1"><g transform="translate(2912.231579, 1791.986243)"><g><path d="M 7.28125 -114.03125 L 7.28125 -135.59375 L 52.84375 -135.59375 L 52.84375 -118.078125 C 57.507812 -124.722656 63.707031 -129.976562 71.4375 -133.84375 C 79.164062 -137.707031 87.523438 -139.640625 96.515625 -139.640625 C 110.171875 -139.640625 120.726562 -135.726562 128.1875 -127.90625 C 135.644531 -120.09375 139.375 -108.367188 139.375 -92.734375 L 139.375 -22.375 L 154.734375 -21.5625 L 154.734375 0 L 90.578125 0 L 90.578125 -20.484375 L 99.46875 -21.296875 C 102.164062 -21.648438 104.144531 -22.410156 105.40625 -23.578125 C 106.664062 -24.753906 107.296875 -26.957031 107.296875 -30.1875 L 107.296875 -85.71875 C 107.296875 -95.601562 105.765625 -102.925781 102.703125 -107.6875 C 99.648438 -112.457031 93.851562 -114.84375 85.3125 -114.84375 C 76.78125 -114.84375 70 -112.144531 64.96875 -106.75 C 59.9375 -101.363281 57.421875 -94.984375 57.421875 -87.609375 L 57.421875 -22.375 L 72.78125 -21.5625 L 72.78125 0 L 8.625 0 L 8.625 -20.484375 L 17.515625 -21.296875 C 20.210938 -21.648438 22.191406 -22.410156 23.453125 -23.578125 C 24.710938 -24.753906 25.34375 -26.957031 25.34375 -30.1875 L 25.34375 -104.859375 C 25.34375 -110.253906 23.09375 -113.039062 18.59375 -113.21875 Z M 7.28125 -114.03125 "/></g></g></g><g fill="#000000" fill-opacity="1"><g transform="translate(3073.955217, 1791.986243)"><g><path d="M 38.8125 -164.171875 L 56.34375 -164.171875 L 56.34375 -135.59375 L 92.203125 -135.59375 L 89.5 -112.953125 L 56.34375 -112.953125 L 56.34375 -42.046875 C 56.34375 -34.140625 57.78125 -28.613281 60.65625 -25.46875 C 63.53125 -22.320312 67.976562 -20.75 74 -20.75 C 80.019531 -20.75 86.085938 -22.640625 92.203125 -26.421875 L 100.28125 -5.65625 C 91.289062 0.632812 79.878906 3.78125 66.046875 3.78125 C 57.960938 3.78125 51.132812 2.742188 45.5625 0.671875 C 39.988281 -1.390625 35.851562 -3.675781 33.15625 -6.1875 C 30.457031 -8.707031 28.390625 -12.394531 26.953125 -17.25 C 25.515625 -22.101562 24.707031 -25.921875 24.53125 -28.703125 C 24.351562 -31.492188 24.265625 -35.582031 24.265625 -40.96875 L 24.265625 -112.953125 L 5.125 -112.953125 L 7.8125 -132.625 C 16.257812 -133.34375 22.640625 -136.351562 26.953125 -141.65625 C 31.265625 -146.957031 35.21875 -154.460938 38.8125 -164.171875 Z M 38.8125 -164.171875 "/></g></g></g></svg>