<svg xmlns="http://www.w3.org/2000/svg" xmlns:xlink="http://www.w3.org/1999/xlink" width="1500" zoomAndPan="magnify" viewBox="0 0 1125 544.499984" height="726" preserveAspectRatio="xMidYMid meet" version="1.0"><defs><clipPath id="d3189ee6e4"><path d="M 1 116.050781 L 1124 116.050781 L 1124 427.761719 L 1 427.761719 Z M 1 116.050781 " clip-rule="nonzero"/></clipPath></defs><g clip-path="url(#d3189ee6e4)"><path fill="#ff914d" d="M 236.59375 128.753906 Z M 642.125 174.578125 C 641.617188 174.746094 640.84375 175.410156 640.179688 176.339844 C 637.417969 176.066406 634.660156 175.804688 631.898438 175.558594 C 635.34375 175.515625 638.75 175.246094 642.125 174.578125 Z M 443.394531 166.789062 C 443.675781 166.789062 443.957031 166.789062 444.238281 166.777344 C 444.175781 166.917969 444.132812 167.042969 444.089844 167.171875 C 443.851562 167.050781 443.625 166.929688 443.394531 166.789062 Z M 1065.761719 383.078125 C 1065.761719 383.132812 1065.761719 383.183594 1065.761719 383.238281 C 1065.707031 383.210938 1065.65625 383.191406 1065.601562 383.15625 C 1065.65625 383.140625 1065.707031 383.105469 1065.761719 383.078125 Z M 155.480469 367.699219 C 155.507812 367.707031 155.53125 367.707031 155.558594 367.707031 C 155.550781 367.726562 155.542969 367.742188 155.542969 367.75 C 155.523438 367.734375 155.507812 367.714844 155.480469 367.699219 Z M 385.433594 180.265625 C 385.511719 180.25 385.589844 180.230469 385.671875 180.214844 C 385.644531 180.265625 385.617188 180.328125 385.589844 180.386719 C 385.539062 180.34375 385.488281 180.308594 385.433594 180.265625 Z M 450.390625 162.457031 C 451.292969 163.046875 452.265625 163.421875 453.332031 163.582031 C 456.113281 163.738281 458.898438 164.113281 461.527344 162.96875 C 462.535156 162.96875 463.550781 162.933594 464.558594 162.878906 C 466.636719 164.492188 469.292969 164.972656 471.867188 165.605469 C 484.96875 164.992188 498.035156 166.164062 510.945312 167.882812 C 529.332031 170.335938 547.890625 168.339844 566.277344 171.152344 C 572.558594 172.125 579.894531 174 585.898438 169.058594 C 585.847656 169.179688 585.792969 169.285156 585.742188 169.40625 C 586.363281 172.546875 588.71875 173.542969 591.402344 173.351562 C 598.449219 172.84375 605.46875 173.484375 612.417969 174.210938 C 599.105469 173.554688 585.785156 173.492188 572.429688 174.332031 C 571.472656 174.394531 570.492188 174.332031 569.546875 174.191406 C 547.574219 171.003906 525.273438 173.773438 503.300781 170.53125 C 496.449219 167.066406 489.105469 169.328125 482.007812 168.714844 L 482.015625 168.714844 C 482.015625 168.714844 482.007812 168.714844 482.007812 168.714844 C 480.089844 168.679688 478.167969 168.644531 476.25 168.609375 C 472.691406 166 468.574219 166.929688 464.613281 166.777344 C 464.621094 166.789062 464.621094 166.789062 464.621094 166.789062 C 464.621094 166.789062 464.621094 166.789062 464.613281 166.777344 C 462.703125 166.761719 460.773438 166.753906 458.855469 166.734375 C 456.128906 164.625 452.894531 165.035156 449.75 164.753906 C 445.523438 164.386719 441.300781 163.964844 437.085938 163.527344 C 436.742188 163.160156 436.332031 162.871094 435.851562 162.660156 C 439.652344 162.703125 443.449219 162.285156 447.136719 160.925781 C 447.769531 160.925781 448.398438 160.925781 449.03125 160.925781 C 449.398438 161.503906 449.84375 162.019531 450.390625 162.457031 Z M 1119.726562 377.398438 C 1114.273438 371.441406 1116.308594 363.429688 1114.011719 356.585938 C 1112.039062 350.75 1111.25 344.921875 1114.539062 339.050781 C 1116.78125 335.054688 1115.105469 331.734375 1111.460938 329.253906 C 1109.621094 328.007812 1107.894531 326.605469 1106.117188 325.273438 C 1104.222656 321.664062 1100.402344 320.882812 1097.175781 320.734375 C 1090.699219 320.4375 1084.792969 318.441406 1078.792969 316.46875 C 1075.09375 314.699219 1071.945312 311.734375 1067.589844 311.480469 C 1062.175781 308.328125 1062.867188 302.613281 1064.113281 298.503906 C 1067.484375 287.285156 1063.421875 278.882812 1056.757812 270.433594 C 1052.867188 265.5 1048.59375 262.808594 1042.335938 262.273438 C 1033.34375 261.503906 1024.359375 261.320312 1015.359375 261.378906 C 1010.007812 261.425781 1005.0625 260.59375 1001.796875 255.710938 C 1001.136719 255.078125 1001.128906 253.800781 999.859375 253.816406 C 983.945312 251.917969 968.160156 248.699219 951.992188 249.644531 C 950.765625 249.714844 949.441406 249.253906 948.269531 248.761719 C 943.972656 246.964844 943.300781 243.730469 946.636719 240.574219 C 950.097656 237.289062 954.410156 236.316406 959.082031 236.300781 C 970 236.253906 980.910156 236.359375 991.761719 234.503906 C 999.367188 233.199219 1001.269531 229.824219 997.0625 223.617188 C 996.179688 222.304688 994.757812 221.347656 993.847656 220.050781 C 991.480469 216.703125 991.359375 212.070312 994.523438 210.542969 C 1004.460938 205.757812 1000.480469 198.074219 999.824219 190.914062 C 999.613281 188.601562 998.992188 186.480469 997.449219 184.726562 C 995.335938 182.351562 994.554688 180.003906 996.257812 176.882812 C 998.585938 172.605469 996.167969 170.914062 992.15625 170.808594 C 985.730469 170.644531 979.300781 170.679688 972.867188 170.625 C 972.253906 170.554688 971.632812 170.519531 971.007812 170.503906 C 960.914062 167.277344 950.539062 166.402344 940.003906 166.726562 C 938.09375 166.707031 936.175781 166.683594 934.253906 166.664062 C 934.253906 166.664062 934.175781 166.8125 934.175781 166.8125 C 934.160156 166.8125 934.148438 166.8125 934.140625 166.8125 C 934.183594 166.761719 934.21875 166.707031 934.253906 166.664062 C 931.714844 164.902344 928.804688 164.902344 925.902344 164.914062 C 880.894531 165 835.886719 164.78125 790.894531 163.054688 C 764.890625 162.054688 738.882812 163.140625 712.828125 161.441406 C 686.265625 159.707031 659.511719 160.925781 632.84375 160.855469 C 630.90625 159.550781 628.714844 159.191406 626.4375 159.164062 C 605.941406 158.925781 585.46875 158.910156 564.988281 157.304688 C 551.597656 156.261719 538.066406 157.050781 524.597656 157.023438 C 524.589844 157.070312 524.570312 157.113281 524.5625 157.15625 C 524.554688 157.148438 524.535156 157.140625 524.527344 157.128906 C 524.527344 157.128906 524.597656 157.023438 524.597656 157.023438 C 524.554688 156.410156 524.527344 155.796875 524.5 155.175781 C 516.796875 155.265625 509.347656 152.703125 501.566406 153.160156 C 489.359375 153.878906 477.335938 151.257812 465.179688 150.636719 C 446.339844 149.671875 427.605469 146.867188 408.664062 147.429688 C 404.554688 144.398438 399.535156 146.160156 395.089844 144.871094 C 394.433594 144.808594 393.769531 144.738281 393.109375 144.667969 C 392.53125 144.179688 391.929688 144.125 391.296875 144.539062 C 389.195312 145 387.179688 144.992188 385.441406 143.46875 C 384.875 142.242188 384.234375 142.199219 383.515625 143.34375 C 371.316406 143.589844 359.25 141.707031 347.164062 140.574219 C 328.359375 138.824219 309.691406 135.554688 290.726562 135.765625 C 290.28125 135.257812 289.761719 134.855469 289.160156 134.546875 C 285.179688 134.300781 281.203125 134.054688 277.222656 133.8125 C 277.039062 133.625 276.835938 133.488281 276.625 133.371094 C 275.179688 132.398438 273.550781 132.15625 271.78125 132.480469 C 271.78125 132.480469 271.789062 132.480469 271.789062 132.480469 C 271.789062 132.480469 271.789062 132.480469 271.78125 132.480469 C 266.390625 131.867188 261 131.261719 255.601562 130.648438 C 254.515625 130.578125 253.429688 130.515625 252.335938 130.4375 C 252.335938 130.4375 252.335938 130.445312 252.34375 130.445312 C 252.34375 130.445312 252.335938 130.445312 252.335938 130.445312 C 247.785156 129.480469 242.84375 130.839844 238.59375 128.097656 C 237.988281 127.394531 237.296875 127.335938 236.523438 127.835938 L 236.59375 128.753906 C 225.246094 125.460938 213.441406 125.257812 201.855469 123.601562 C 189.894531 121.367188 177.941406 119.0625 165.953125 116.921875 C 163.457031 116.476562 160.835938 116.484375 158.285156 116.609375 C 155.164062 116.765625 152.808594 119.105469 154.234375 121.664062 C 158.652344 129.585938 155.035156 138.050781 156.742188 146.167969 C 158.800781 155.9375 155.960938 158.253906 145.726562 156.445312 C 141.265625 155.667969 136.859375 155.019531 132.34375 155.265625 C 131.757812 155.105469 131.160156 155.042969 130.558594 155.0625 C 129.402344 154.019531 128.070312 153.433594 126.492188 153.449219 C 116.929688 152.285156 107.367188 151.058594 97.789062 149.960938 C 77.6875 147.664062 58.066406 142.136719 37.769531 141.101562 C 34.324219 140.472656 33.300781 142.695312 32.949219 145.40625 C 32.539062 148.613281 32.152344 151.730469 28.664062 153.195312 C 24.421875 154.324219 21.40625 156.796875 20.128906 161.136719 C 18.902344 178.863281 20.191406 196.320312 25.710938 213.320312 C 28.3125 216.75 32.511719 218.160156 35.542969 221.023438 C 39.90625 225.152344 41.230469 232.46875 38.691406 237.867188 C 35.894531 243.792969 34.105469 244.511719 25.140625 242.863281 C 21.320312 242.164062 17.507812 241.769531 13.636719 242.171875 C 10.628906 242.476562 8.4375 244.386719 8.957031 247.210938 C 10.4375 255.246094 7.335938 263.28125 9.234375 271.1875 C 10.3125 275.65625 10.007812 279.855469 8.65625 284.09375 C 7.597656 283.964844 6.597656 284.183594 5.6875 284.777344 C 0.410156 290.457031 2.007812 297.53125 2.699219 303.917969 C 3.339844 309.753906 3.355469 315.265625 1.902344 320.875 C 1.847656 325.792969 1.890625 330.71875 1.636719 335.640625 C 1.691406 337.203125 1.832031 338.753906 1.847656 340.320312 C 1.867188 344.6875 1.988281 349.042969 2.304688 353.398438 C 5.167969 358.542969 5.527344 363.894531 3.777344 369.433594 C 3.757812 370.773438 3.800781 372.125 3.820312 373.464844 C 3.855469 374.859375 3.933594 376.253906 4.3125 377.601562 C 4.863281 378.941406 5.792969 379.976562 6.859375 380.921875 C 7.625 381.457031 8.4375 381.878906 9.316406 382.183594 C 11.699219 383.238281 14.25 383.71875 16.738281 384.429688 C 17.550781 384.570312 18.359375 384.675781 19.191406 384.621094 C 20.339844 384.734375 21.460938 384.894531 22.609375 384.972656 C 23.34375 385.101562 24.082031 385.234375 24.835938 385.234375 C 25.570312 385.375 26.308594 385.523438 27.070312 385.542969 C 28.621094 385.867188 30.179688 386.226562 31.773438 386.269531 C 32.617188 386.226562 33.449219 386.171875 34.28125 386.074219 C 37.324219 386.085938 40.382812 386.023438 43.386719 386.707031 C 45.980469 387.320312 48.566406 387.996094 51.265625 387.925781 C 52.632812 387.890625 53.851562 388.476562 55.140625 388.75 C 56.480469 389.132812 57.839844 389.285156 59.230469 389.117188 C 63.332031 388.039062 67.117188 390.054688 71.097656 390.273438 C 74.953125 390.941406 78.0625 393.953125 82.191406 393.761719 C 83.460938 393.753906 84.714844 393.753906 85.976562 393.769531 C 86.800781 393.796875 87.617188 393.777344 88.429688 393.71875 C 89.210938 393.5 89.9375 393.183594 90.628906 392.769531 C 91.726562 392.324219 92.714844 391.738281 93.644531 391.027344 C 105.710938 392.921875 117.78125 394.699219 130.03125 394.820312 C 129.96875 394.902344 129.910156 394.960938 129.855469 395.050781 C 130.136719 398.484375 132.476562 400.132812 135.464844 400.484375 C 143.9375 401.480469 151.871094 405.441406 160.582031 405.109375 C 166.601562 403.996094 172.5 405.734375 178.46875 405.785156 C 179.5625 405.707031 180.65625 405.636719 181.753906 405.53125 C 194.855469 403.566406 206.800781 409.570312 219.402344 410.972656 C 222.828125 410.527344 226.097656 409.535156 229.742188 410.113281 C 240.058594 411.753906 250.460938 412.847656 260.929688 413.199219 C 263.613281 413.226562 266.285156 413.453125 268.941406 413.875 C 272.5 413.664062 276.136719 412.550781 279.476562 414.785156 C 281.4375 415.53125 283.453125 416.03125 285.558594 416.082031 C 289.640625 415.320312 293.742188 414.925781 297.886719 415.066406 C 299.4375 415.074219 300.988281 415.109375 302.539062 415.152344 C 307.359375 415.222656 311.601562 417.851562 316.34375 418.246094 C 317.410156 418.046875 318.472656 417.816406 319.523438 417.546875 C 332.511719 415.960938 345.226562 417.929688 357.890625 420.558594 C 364.480469 423.347656 371.167969 420.367188 377.878906 420.894531 C 408.246094 423.269531 438.742188 423.636719 469.132812 425.871094 C 471.808594 425.1875 474.472656 424.582031 477.257812 424.949219 C 479.394531 425.230469 481.472656 425.722656 483.410156 426.675781 C 484.445312 427.054688 485.503906 427.253906 486.617188 427.21875 C 488.265625 427.160156 489.914062 427.429688 491.550781 427.105469 C 497.457031 426.265625 503.179688 424.046875 509.28125 424.722656 C 512.101562 424.644531 514.914062 425.089844 517.746094 424.878906 C 527.753906 424.257812 537.726562 424.941406 547.671875 425.949219 C 550.230469 425.484375 552.183594 424.101562 553.675781 422.007812 C 602.382812 422.410156 651.074219 420.691406 699.769531 420.078125 C 714.84375 419.894531 729.75 417.054688 744.839844 418.175781 C 757.375 418.117188 769.871094 416.554688 782.347656 416.300781 C 802.601562 415.898438 822.738281 413.007812 843.027344 413.890625 C 844.296875 413.945312 845.605469 413.777344 846.867188 413.550781 C 871.894531 409.097656 897.371094 409.21875 922.589844 406.765625 C 942.652344 404.8125 962.859375 403.148438 983.058594 402.007812 C 993.601562 401.402344 1004.300781 401.570312 1014.765625 399.992188 C 1033.527344 397.179688 1052.492188 396.777344 1071.316406 394.699219 C 1085.679688 393.113281 1100.035156 391.464844 1113.890625 387.074219 C 1117.148438 386.855469 1121.128906 388.25 1122.914062 384.261719 C 1124.292969 381.203125 1122.257812 379.011719 1119.726562 377.398438 " fill-opacity="1" fill-rule="nonzero"/></g></svg>