<svg xmlns="http://www.w3.org/2000/svg" xmlns:xlink="http://www.w3.org/1999/xlink" width="7200" zoomAndPan="magnify" viewBox="0 0 5400 2160.000014" height="2880" preserveAspectRatio="xMidYMid meet" version="1.0"><path fill="#fffdf0" d="M 132.699219 1434.75 C 76.066406 1404.328125 65.578125 1381.246094 92.84375 1337.183594 C 122.210938 1291.023438 156.820312 1245.914062 195.625 1207.09375 C 425.304688 982.585938 697.984375 838.859375 1012.613281 774.863281 C 1238.097656 728.703125 1466.726562 719.261719 1696.40625 733.949219 C 2017.328125 755.980469 2325.667969 833.613281 2626.664062 942.722656 C 2867.878906 1029.796875 3110.144531 1115.824219 3354.503906 1193.457031 C 3608.308594 1274.238281 3868.402344 1323.546875 4134.789062 1347.675781 C 4396.980469 1370.753906 4657.074219 1361.3125 4912.972656 1302.5625 C 4970.652344 1288.925781 5029.382812 1268.992188 5082.871094 1242.765625 C 5201.382812 1185.0625 5265.355469 1032.945312 5224.453125 906.003906 C 5218.164062 885.019531 5195.089844 865.085938 5174.113281 853.546875 C 5138.457031 832.566406 5098.601562 818.925781 5060.847656 801.09375 C 5049.3125 795.847656 5038.824219 787.453125 5025.191406 779.0625 C 5161.527344 696.183594 5291.574219 786.40625 5311.503906 889.21875 C 5334.574219 1014.058594 5309.40625 1128.414062 5243.332031 1233.324219 C 5208.722656 1288.925781 5153.140625 1319.351562 5095.457031 1343.480469 C 4939.191406 1407.472656 4774.535156 1430.554688 4608.828125 1443.144531 C 4564.78125 1446.292969 4521.78125 1451.535156 4477.734375 1452.585938 C 4066.617188 1463.078125 3667.039062 1390.6875 3276.898438 1265.84375 C 3045.121094 1190.308594 2814.390625 1105.332031 2584.710938 1020.355469 C 2307.835938 918.59375 2024.671875 840.957031 1729.96875 818.925781 C 1428.972656 796.894531 1129.023438 801.09375 836.417969 896.5625 C 574.226562 982.585938 345.597656 1123.167969 157.867188 1325.644531 C 129.550781 1357.117188 108.578125 1387.542969 132.699219 1434.75 Z M 132.699219 1434.75 " fill-opacity="1" fill-rule="nonzero"/></svg>