<svg xmlns="http://www.w3.org/2000/svg" xmlns:xlink="http://www.w3.org/1999/xlink" width="6912" zoomAndPan="magnify" viewBox="0 0 5184 2592.000001" height="3456" preserveAspectRatio="xMidYMid meet" version="1.0"><defs><clipPath id="2a1170951b"><path d="M 1 180 L 1712 180 L 1712 2418 L 1 2418 Z M 1 180 " clip-rule="nonzero"/></clipPath><clipPath id="0b70ac7a52"><path d="M 2268.597656 1950.5625 L 157.144531 2751.132812 L -710.9375 461.621094 L 1400.515625 -338.945312 Z M 2268.597656 1950.5625 " clip-rule="nonzero"/></clipPath><clipPath id="f3fd66ab34"><path d="M 2268.597656 1950.5625 L 157.144531 2751.132812 L -710.9375 461.621094 L 1400.515625 -338.945312 Z M 2268.597656 1950.5625 " clip-rule="nonzero"/></clipPath></defs><g clip-path="url(#2a1170951b)"><g clip-path="url(#0b70ac7a52)"><g clip-path="url(#f3fd66ab34)"><path fill="#efefef" d="M -577.542969 736.183594 C -558.128906 865.765625 -502.84375 992.121094 -447.894531 1109.832031 C -393.683594 1225.859375 -330.996094 1337.851562 -260.664062 1444.414062 C -117.375 1661.601562 57.0625 1857.378906 251.183594 2027.378906 C 350.050781 2113.9375 454.253906 2193.882812 562.828125 2266.851562 C 666.976562 2336.859375 782.355469 2419.066406 911.238281 2417.257812 C 1042.136719 2415.460938 1128.992188 2309.617188 1196.984375 2207.78125 C 1271.828125 2095.710938 1339.542969 1978.445312 1399.207031 1856.957031 C 1520.359375 1610.351562 1609.054688 1345.917969 1662.011719 1074.191406 C 1687.902344 941.464844 1709.195312 804.648438 1711.164062 668.714844 C 1712.917969 548.542969 1689.074219 422.238281 1601.773438 334.75 C 1519.871094 252.648438 1401.476562 228.496094 1291.824219 213.109375 C 1163.917969 187.816406 1028.867188 186.957031 900.019531 182.871094 C 731.113281 177.511719 561.839844 180.703125 393.269531 192.550781 C 221.363281 198.597656 50.367188 216.167969 -117.296875 257.085938 C -117.71875 257.195312 -118.144531 257.304688 -118.519531 257.394531 C -139.152344 261.914062 -159.691406 267.070312 -179.9375 273.148438 C -280.613281 300.484375 -383.109375 337.589844 -462.722656 405.238281 C -560.136719 487.996094 -596.796875 607.828125 -577.542969 736.183594 Z M -577.542969 736.183594 " fill-opacity="1" fill-rule="nonzero"/></g></g></g></svg>